<svg width="70" height="64" viewBox="0 0 70 64" fill="none" xmlns="http://www.w3.org/2000/svg">
<path d="M30.701 29.4642C31.4001 29.6876 32.3307 30.1207 32.3307 31.2695V42.0098C32.3307 46.0489 30.4468 48.0957 26.738 48.0957C22.8385 48.0957 21.4494 44.9502 21.4494 42.0098V31.2968C21.4494 29.9839 22.0395 29.6283 22.5525 29.4642L23.7419 29.0813H17.4183L18.6076 29.4642C19.1206 29.6283 19.7108 29.9885 19.7108 31.2968V42.0372C19.7108 44.6539 20.6187 49.0394 26.7153 49.0394C30.8463 49.0394 33.0298 46.6187 33.0298 42.0372V31.2968C33.0298 30.4124 33.5609 29.8152 34.6595 29.4642L35.8489 29.0813H29.5253L30.7146 29.4642H30.701Z" fill="#BBAA8E"/>
<path d="M44.1518 37.5833C41.6051 36.3205 39.1991 35.1262 39.249 32.824C39.3081 29.8107 42.2588 29.3639 44.0065 29.3594C46.5577 29.5007 48.7367 31.1783 49.4267 33.5352L49.7854 34.7569L49.8081 33.485C49.8217 32.7739 49.8171 32.0581 49.8081 31.3607C49.8035 30.6677 49.7944 29.952 49.8081 29.25L49.8353 27.9097L49.4313 29.1861C49.1952 29.9247 48.8956 30.2346 48.4326 30.2119C48.2465 30.2119 48.0739 30.148 47.8833 29.9976C46.5804 29.0995 45.1142 28.6619 43.3891 28.6619C40.2024 28.6619 38.0097 30.6404 37.928 33.5853C37.8509 37.0454 40.9287 38.5224 43.9021 39.9539C46.4533 41.1802 48.8638 42.3426 48.8184 44.6585C48.7549 48.0502 44.9008 48.3146 43.725 48.3146C40.9196 48.2644 38.7906 46.5093 37.7328 43.382L37.3742 42.3153L37.356 43.4413C37.3424 44.2892 37.3515 45.1462 37.356 45.9759C37.3651 46.8056 37.3697 47.6627 37.356 48.506L37.3379 49.5181L37.7283 48.5881C37.9053 48.1641 38.3865 47.8769 38.9222 47.8769C39.2127 47.886 39.6803 48.0547 40.216 48.2553C41.1466 48.5972 42.4177 49.0622 43.8612 49.0987C46.8846 49.0987 50.1485 47.3846 50.2302 44.2026C50.3074 40.6377 47.0435 39.0148 44.1608 37.5833H44.1518Z" fill="#BBAA8E"/>
<path d="M68.8106 29.4642L70 29.0813H63.6764L64.8658 29.4642C65.3787 29.6283 65.9689 29.9885 65.9689 31.2968V38.3811H56.0227V31.2968C56.0227 29.9839 56.6128 29.6283 57.1258 29.4642L58.3152 29.0813H51.9916L53.1809 29.4642C53.6939 29.6283 54.2841 29.9885 54.2841 31.2968V46.6324C54.2841 47.9453 53.6939 48.3009 53.1809 48.465L51.9916 48.8479H58.2698L57.1304 48.465C56.6673 48.31 56.0499 47.959 56.0227 46.6871V39.0786H65.9689V46.6324C65.9689 47.9453 65.3787 48.3009 64.8658 48.465L63.6764 48.8479H69.9546L68.8152 48.465C68.3521 48.31 67.7348 47.959 67.7075 46.6871V31.2968C67.7075 29.9839 68.2977 29.6283 68.8106 29.4642Z" fill="#BBAA8E"/>
<path d="M9.20624 10.4498H9.27433C9.25163 10.4361 9.22894 10.4224 9.20624 10.4087V10.4498Z" fill="#BBAA8E"/>
<path d="M32.7983 47.9407C30.8554 49.9557 28.4403 50.6942 25.1719 50.6942H16.2425V29.6648C15.5207 30.3896 14.8625 31.0689 14.2451 31.698C13.2056 32.783 12.3022 33.7221 11.5623 34.529V48.4969C11.3262 49.354 10.8223 50.0879 10.0415 50.6988C9.77367 50.9039 9.49675 51.0999 9.20622 51.2686V51.2914H30.8281C31.9403 51.2914 32.6394 52.4493 32.1446 53.4386C20.7866 75.6988 -12.2614 58.2708 8.92023 33.6993L8.91115 33.6902L9.10635 33.4713C9.85538 32.6143 10.668 31.7345 11.5668 30.8592C11.8528 30.572 12.1524 30.262 12.4611 29.9292C13.941 28.4111 15.7341 26.5831 17.8314 24.4633C20.7004 21.5503 23.1381 18.9563 24.3729 16.7864C27.2827 11.6214 26.8016 7.28144 24.6407 4.30915C23.2834 2.41728 21.2361 1.08613 18.9708 0.447905C16.6965 -0.203994 14.1861 -0.162965 11.8846 0.694076C7.89429 2.1711 4.48962 6.09617 3.95395 13.1394C4.05836 15.7744 4.48962 17.6434 5.22957 18.7603C6.37354 20.4653 8.35732 19.4213 7.60376 17.6753C6.24643 14.4934 3.58171 15.8564 5.00259 10.1854C9.55577 -7.88545 40.6699 0.64393 16.2425 25.2383V13.1713C16.5195 12.3143 17.0324 11.5712 17.7951 10.9695C18.0357 10.7734 18.2899 10.5956 18.5486 10.4406H9.27432C9.53761 10.5956 9.79183 10.7689 10.037 10.9695C10.8178 11.5666 11.3217 12.3143 11.5577 13.1713V30.0067C4.89364 37.0089 -5.17964 49.085 3.14137 58.5489C5.06614 60.7371 7.74902 62.3281 10.7542 63.1988C13.7685 64.0786 17.0914 64.2428 20.3327 63.5909C26.225 62.401 31.7905 58.517 34.4235 51.2777C36.3664 46.7008 36.1031 42.2788 36.1031 42.2788C35.168 46.0306 32.88 47.8359 32.7938 47.9362L32.7983 47.9407Z" fill="#BBAA8E"/>
<path d="M53.8755 51.9342H51.406L51.8327 52.0618C52.2776 52.194 52.5045 52.4311 52.5136 52.7776V58.1705L47.8152 51.9615L47.797 51.9342H46.0447L46.4715 52.0618C46.7847 52.153 47.1388 52.3171 47.1388 52.7867V58.7586C47.1297 59.1005 46.9027 59.3421 46.4578 59.4743L46.0311 59.602H48.4916L48.0648 59.4743C47.62 59.3421 47.393 59.1051 47.3839 58.7632V52.5587L52.786 59.7296V52.7821C52.7951 52.4357 53.0175 52.194 53.4533 52.0664L53.88 51.9387L53.8755 51.9342Z" fill="#BBAA8E"/>
<path d="M60.081 58.713L57.3391 51.8795L57.2801 51.7336L54.3975 58.7404C54.2295 59.1005 53.9481 59.3832 53.6621 59.4698L53.2535 59.5974H55.7548L55.3281 59.4698C55.1148 59.406 54.8832 59.3148 54.7788 59.1005C54.6971 58.9364 54.7107 58.713 54.8197 58.4486L55.5869 56.575H58.4877L59.3638 58.7723C59.4319 58.941 59.391 59.0868 59.3502 59.178C59.2821 59.3193 59.1504 59.4287 59.0097 59.4743L58.583 59.602H61.1841L60.7574 59.4743C60.476 59.3923 60.249 59.137 60.0856 58.7176L60.081 58.713ZM55.6777 56.3242L57.035 53.0192L58.3696 56.3242H55.6777Z" fill="#BBAA8E"/>
<path d="M63.4766 52.0618L63.9034 51.9342H61.3839L61.8106 52.0618C62.0331 52.1257 62.2918 52.2715 62.2918 52.7867V58.7495C62.2918 59.2646 62.0331 59.4059 61.8106 59.4743L61.3839 59.602H63.8852L63.4766 59.4743C63.2769 59.4105 63.0045 59.2737 62.9955 58.7723V52.7912C62.9955 52.2761 63.2542 52.1348 63.4766 52.0664V52.0618Z" fill="#BBAA8E"/>
<path d="M69.6187 58.3939C69.4643 58.6538 69.0603 59.3512 68.0707 59.3512H65.7192V52.7867C65.7192 52.2715 65.978 52.1302 66.2004 52.0618L66.6271 51.9342H64.1077L64.5344 52.0618C64.7568 52.1257 65.0156 52.2715 65.0156 52.7867V58.7495C65.0156 59.2646 64.7568 59.4059 64.5344 59.4743L64.1077 59.602H69.428L69.8547 57.9882L69.6187 58.3985V58.3939Z" fill="#BBAA8E"/>
</svg>
